<svg id="Layer_2" height="512" viewBox="0 0 128 128" width="512" xmlns="http://www.w3.org/2000/svg" data-name="Layer 2"><path d="m64 10a54.027 54.027 0 0 0 -34.548 12.534 1.75 1.75 0 0 0 -.116 2.581l73.549 73.549a1.75 1.75 0 0 0 1.237.513h.079a1.747 1.747 0 0 0 1.265-.627 53.968 53.968 0 0 0 -41.466-88.55zm4.42 49.25h28.163v9.5h-18.663zm23.851-19.75h.875a5.756 5.756 0 0 1 5.75 5.75 1.75 1.75 0 0 0 1.75 1.75 2.733 2.733 0 0 1 2.729 2.729v6.021h-10.729a6.508 6.508 0 0 1 -6.5-6.5 1.75 1.75 0 0 0 -1.746-1.75h-10.692a3.188 3.188 0 0 1 0-6.375h2.438a1.75 1.75 0 0 0 1.75-1.75v-3.812a6.313 6.313 0 0 1 12.625 0v2.187a1.75 1.75 0 0 0 1.75 1.75zm11.1 19.75v9.5h-3.292v-9.5zm.6 35.56-22.551-22.56h23.705a1.75 1.75 0 0 0 1.75-1.75v-20.771a6.241 6.241 0 0 0 -4.607-6.016 9.269 9.269 0 0 0 -8.247-7.673v-.479a9.813 9.813 0 0 0 -19.625 0v2.063h-.687a6.688 6.688 0 0 0 0 13.375h9.091a9.965 9.965 0 0 0 2.259 4.75h-20.139l-31.73-31.728a50.468 50.468 0 0 1 70.789 70.789z"/><path d="m64 0a64 64 0 1 0 64 64 64.072 64.072 0 0 0 -64-64zm0 124.5a60.5 60.5 0 1 1 60.5-60.5 60.569 60.569 0 0 1 -60.5 60.5z"/><path d="m24.776 29.747a1.788 1.788 0 0 0 -1.325-.511 1.752 1.752 0 0 0 -1.267.641 53.967 53.967 0 0 0 75.938 75.938 1.749 1.749 0 0 0 .13-2.592zm34.054 39h-34.205v-9.5h24.705zm5.17 45.753a50.467 50.467 0 0 1 -40.3-80.884l22.13 22.134h-22.955a1.75 1.75 0 0 0 -1.75 1.75v13a1.75 1.75 0 0 0 1.75 1.75h39.455l32.054 32.05a50.554 50.554 0 0 1 -30.384 10.2z"/></svg>